<?xml version="1.0" encoding="utf-8"?>
<!-- Generator: Adobe Illustrator 25.2.1, SVG Export Plug-In . SVG Version: 6.00 Build 0)  -->
<svg version="1.1" id="Layer_1" xmlns="http://www.w3.org/2000/svg" xmlns:xlink="http://www.w3.org/1999/xlink" x="0px" y="0px"
	 viewBox="0 0 300 250" style="enable-background:new 0 0 300 250;" xml:space="preserve">
<style type="text/css">
	.st0{fill:#111110;}
</style>
<path class="st0" d="M157.17,145.57v-21.52c0-1.8-0.32-3.14-0.97-4.03s-1.7-1.33-3.16-1.33c-1.44,0-2.55,0.54-3.36,1.62
	s-1.2,2.58-1.2,4.5v20.76h-15.54v-21.16c0-3.82-1.3-5.73-3.9-5.73c-1.58,0-2.77,0.55-3.58,1.66c-0.8,1.11-1.2,2.69-1.2,4.76v20.47
	h-15.54v-37.36h15.54v5.91h0.15c0.58-1.05,1.51-2.11,2.79-3.19c1.28-1.08,2.72-1.96,4.32-2.63c1.6-0.67,3.34-1,5.22-1
	c2.65,0,4.88,0.52,6.69,1.57c1.81,1.05,3.32,2.7,4.54,4.96c1.31-2.09,3.06-3.7,5.25-4.83c2.19-1.13,4.62-1.7,7.29-1.7
	c3.92,0,6.92,1.28,9.01,3.83c2.09,2.55,3.14,6.24,3.14,11.05v23.38H157.17z"/>
<path class="st0" d="M198.32,139.07c0,2.16-0.78,3.94-2.35,5.33c-1.57,1.39-3.67,2.08-6.29,2.08c-2.55,0-4.64-0.71-6.26-2.12
	c-1.62-1.41-2.43-3.17-2.43-5.29c0-2.14,0.78-3.87,2.35-5.2c1.57-1.33,3.68-1.99,6.33-1.99c2.58,0,4.66,0.66,6.26,1.99
	C197.52,135.2,198.32,136.93,198.32,139.07z"/>
<polygon class="st0" points="195.8,127.95 183.32,127.95 181.35,93.25 197.73,93.25 "/>
</svg>
